<mxfile host="app.diagrams.net" modified="2023-05-15T08:44:53.914Z" agent="Mozilla/5.0 (Macintosh; Intel Mac OS X 10_15_7) AppleWebKit/537.36 (KHTML, like Gecko) Chrome/113.0.0.0 Safari/537.36 Edg/113.0.1774.42" version="21.3.0" etag="BXP59lPpTBS6vYlMv3fg" type="github">
  <diagram name="第 1 页" id="sVNKX02d8d3XeQ7yls5P">
    <mxGraphModel>
      <root>
        <mxCell id="0" />
        <mxCell id="1" parent="0" />
      </root>
    </mxGraphModel>
  </diagram>
</mxfile>
